HIERARCHY
ROOT hip
{
	OFFSET 0.000000 0.000000 0.000000 
	CHANNELS 6 Xposition Yposition Zposition Xrotation Zrotation Yrotation
	JOINT abdomen
	{
		OFFSET 0.000000 3.402643 0.000000 
		CHANNELS 3 Xrotation Zrotation Yrotation
		JOINT chest
		{
			OFFSET 0.000000 8.438565 -0.680529 
			CHANNELS 3 Xrotation Zrotation Yrotation
			JOINT neck
			{
				OFFSET 0.000000 10.207942 -0.272212 
				CHANNELS 3 Xrotation Zrotation Yrotation
				JOINT head
				{
					OFFSET 0.000000 3.130431 0.000000 
					CHANNELS 3 Xrotation Zrotation Yrotation
					End Site
					{
						OFFSET 0.000000 3.130435 0.000000 
					}
				}
			}
			JOINT lCollar
			{
				OFFSET 3.470700 6.669187 -0.816635 
				CHANNELS 3 Yrotation Zrotation Xrotation
				JOINT lShldr
				{
					OFFSET 3.198488 0.000000 0.000000 
					CHANNELS 3 Zrotation Yrotation Xrotation
					JOINT lForeArm
					{
						OFFSET 10.139888 0.000000 0.000000 
						CHANNELS 3 Yrotation Zrotation Xrotation
						JOINT lHand
						{
							OFFSET 8.370511 0.000000 0.000000 
							CHANNELS 3 Zrotation Yrotation Xrotation
							End Site
							{
								OFFSET 4.083176 0.000000 0.000000 
							}
						}
					}
				}
			}
			JOINT rCollar
			{
				OFFSET -3.470700 6.669187 -0.816635 
				CHANNELS 3 Yrotation Zrotation Xrotation
				JOINT rShldr
				{
					OFFSET -3.198488 0.000000 0.000000 
					CHANNELS 3 Zrotation Yrotation Xrotation
					JOINT rForeArm
					{
						OFFSET -10.139888 0.000000 0.000000 
						CHANNELS 3 Yrotation Zrotation Xrotation
						JOINT rHand
						{
							OFFSET -8.370511 0.000000 0.000000 
							CHANNELS 3 Zrotation Yrotation Xrotation
							End Site
							{
								OFFSET -4.083176 0.000000 0.000000 
							}
						}
					}
				}
			}
		}
	}
	JOINT lThigh
	{
		OFFSET 5.308129 -1.633274 1.361059 
		CHANNELS 3 Xrotation Zrotation Yrotation
		JOINT lShin
		{
			OFFSET -2.041588 -20.007561 0.000000 
			CHANNELS 3 Xrotation Zrotation Yrotation
			JOINT lFoot
			{
				OFFSET 0.000000 -19.190928 -1.224953 
				CHANNELS 3 Xrotation Yrotation Zrotation
				End Site
				{
					OFFSET 0.000000 -2.449906 4.627600 
				}
			}
		}
	}
	JOINT rThigh
	{
		OFFSET -5.308129 -1.633274 1.361059 
		CHANNELS 3 Xrotation Zrotation Yrotation
		JOINT rShin
		{
			OFFSET 2.041588 -20.007561 0.000000 
			CHANNELS 3 Xrotation Zrotation Yrotation
			JOINT rFoot
			{
				OFFSET 0.000000 -19.190928 -1.224953 
				CHANNELS 3 Xrotation Yrotation Zrotation
				End Site
				{
					OFFSET 0.000000 -2.449906 4.627600 
				}
			}
		}
	}
}
MOTION
Frames: 20
Frame Time: 0.011111
0.616647 54.530106 19.285810 7.781770 -7.852709 -3.434991 32.558556 5.765886 8.051455 -26.368561 -4.962491 1.602469 -10.560703 -0.381099 -0.600918 -10.490863 2.914868 -1.524524 8.861669 -1.932660 3.351237 -69.785934 -4.165452 44.666306 -89.517677 5.419898 34.812546 8.524705 12.647240 -20.042372 -6.806992 -0.756156 2.905732 57.801678 31.516077 47.585133 95.161758 -8.691636 38.046154 -8.534408 -12.637552 53.411968 -44.523842 13.699298 -6.195888 52.885590 -3.492411 -7.506199 0.542631 -6.026827 -3.244676 32.703617 1.934155 11.828503 7.066994 5.993196 1.699256 27.261509 -15.414834 7.790239 
0.602604 54.635586 20.964737 7.824573 -7.954920 -3.179956 32.541027 5.730453 7.862708 -26.249357 -4.784756 1.541300 -10.931931 -0.391950 -0.634691 -10.469120 2.661226 -1.584055 8.861669 -1.932660 3.351237 -70.141655 -4.173940 43.897587 -89.737572 5.599803 34.962570 8.524705 12.647240 -18.850967 -6.806992 -0.756156 2.905732 57.814144 31.417429 47.928535 94.807686 -8.543746 37.864578 -8.534408 -12.637552 53.226421 -43.782284 13.572852 -7.189292 47.572365 -4.007107 -6.960103 1.351336 -5.406628 -3.122096 32.416718 2.305536 12.445170 10.376823 5.974214 2.172307 25.817055 -13.832552 6.829599 
0.603851 54.701744 22.630556 7.826938 -8.048105 -3.074384 32.703579 5.656704 7.913014 -26.571468 -4.657332 1.573583 -11.215227 -0.400446 -0.659881 -10.114789 2.388125 -1.609348 8.861669 -1.932660 3.351237 -70.271515 -3.932953 43.480030 -89.968712 5.782402 35.112576 8.524705 12.647240 -17.747450 -6.806992 -0.756156 2.905732 57.762249 30.784224 48.200954 94.387726 -8.360419 37.639870 -8.534408 -12.637552 52.904160 -42.870804 13.591706 -8.118543 42.399776 -4.459397 -6.393163 2.101466 -4.403470 -3.009438 31.985872 2.647717 13.201805 13.955227 5.924397 2.686417 24.471664 -12.264361 5.956756 
0.605100 54.739815 24.307610 7.715929 -8.409233 -3.057714 33.045067 5.794221 8.245344 -26.737892 -4.656477 1.636712 -11.586323 -0.396666 -0.666702 -9.975736 2.167747 -1.583547 8.861669 -1.932660 3.351237 -70.481300 -4.213570 43.274055 -90.053032 5.846457 35.173313 8.524705 12.647240 -17.083385 -6.806992 -0.756156 2.905732 57.850307 30.093664 48.148476 93.808273 -8.094106 37.346539 -8.534408 -12.637552 52.591656 -41.905666 13.924300 -9.162556 37.505455 -4.845469 -5.788381 2.531122 -3.005800 -2.969915 31.633539 3.184836 14.179019 17.755690 5.836089 3.203596 23.283390 -11.138862 5.386554 
0.607284 54.749176 25.991531 7.658217 -8.900480 -2.788938 33.251945 6.278223 8.365376 -26.640730 -4.731825 1.599036 -11.888890 -0.275595 -0.689029 -10.178233 1.900883 -1.573565 8.861669 -1.932660 3.351237 -70.798866 -4.825779 42.998596 -90.104820 5.883512 35.203510 8.524705 12.647240 -16.370497 -6.806992 -0.756156 2.905732 58.115395 29.558775 48.172863 93.094147 -7.740650 36.961174 -8.534408 -12.637552 52.474468 -41.051353 14.257053 -10.468519 33.047062 -5.142569 -5.241245 2.374229 -1.569246 -2.972350 31.179476 3.985085 14.979565 21.717915 5.697840 3.752291 21.390886 -10.344559 4.970538 
0.597298 54.712666 27.639252 7.566714 -9.192896 -2.457006 33.427952 6.467097 8.253670 -26.709869 -4.775815 1.551271 -11.849693 0.030670 -0.753586 -10.429139 1.601414 -1.581893 8.861669 -1.932660 3.351237 -70.788261 -5.328384 42.841343 -90.222839 5.972432 35.284286 8.524705 12.647240 -15.384166 -6.806992 -0.756156 2.905732 58.519974 28.721493 48.264553 92.381172 -7.361277 36.560680 -8.534408 -12.637552 52.728374 -40.150333 14.393495 -11.563128 29.284761 -5.362265 -4.778297 1.719224 -0.051587 -3.030361 30.516830 4.756030 14.577261 25.775995 5.524567 4.297534 18.787079 -9.280394 4.494494 
0.583568 54.597824 29.255764 7.513079 -9.452167 -2.443258 33.449192 6.494955 8.336621 -26.523373 -4.748253 1.560625 -11.332354 0.241783 -0.827138 -11.424106 1.452855 -1.666366 8.861669 -1.932660 3.351237 -70.649124 -6.170211 42.947186 -90.308403 6.035003 35.345280 8.524705 12.647240 -14.397839 -6.806992 -0.756156 2.905732 58.938766 27.941751 48.206135 91.515137 -6.851087 36.081409 -8.534408 -12.637552 53.197124 -39.273312 14.735409 -11.969775 26.465502 -5.514094 -4.406054 0.917326 1.414204 -3.058830 29.617933 5.400668 14.300927 30.007677 5.309805 4.839631 20.453678 -9.441792 4.601134 
0.577014 54.432739 30.909100 7.497634 -9.652557 -2.495500 33.205059 6.521094 8.327150 -25.954302 -4.663197 1.532184 -10.716937 0.124698 -0.754590 -12.784983 1.768736 -1.624135 8.861669 -1.932660 3.351237 -70.633064 -7.391075 43.046795 -90.315056 6.041513 35.335949 8.524705 12.647240 -13.343152 -6.806992 -0.756156 2.905732 59.321579 27.359751 48.099792 90.588905 -6.239554 35.520329 -8.534408 -12.637552 53.724464 -38.394207 15.028515 -11.654777 24.622150 -5.595524 -4.169773 0.021896 2.853604 -3.065395 28.545012 5.898508 13.886084 34.409927 5.052631 5.413600 21.049501 -9.503385 4.638590 
0.555481 54.295742 32.580223 7.425992 -9.558423 -2.550315 33.032696 6.191075 8.096247 -25.668777 -4.485161 1.499618 -10.433365 -0.121363 -0.600422 -13.319492 2.466406 -1.478504 8.861669 -1.932660 3.351237 -70.532433 -8.651118 43.201359 -90.256386 5.997698 35.305202 8.524705 12.647240 -12.015027 -6.806992 -0.756156 2.905732 59.722614 26.629461 47.874584 89.694267 -5.568904 34.942638 -8.534408 -12.637552 53.783062 -37.362972 14.988082 -10.253191 23.731863 -5.640726 -4.030734 -0.085188 3.418653 -3.047651 27.236015 6.181908 13.333037 38.932308 4.732203 5.954128 21.250227 -9.920747 4.812193 
0.529892 54.156254 34.215462 7.302009 -9.280687 -2.198153 33.096325 5.793374 7.569866 -25.864100 -4.392349 1.417042 -10.237854 -0.166789 -0.533867 -13.442719 3.000255 -1.415325 8.861669 -1.932660 3.351237 -70.200348 -9.888314 43.571518 -90.173172 5.934003 35.253944 8.524705 12.647240 -10.774793 -6.806992 -0.756156 2.905732 60.222015 25.735880 47.547131 88.811852 -4.802418 34.302021 -8.534408 -12.637552 53.460800 -36.256081 14.490993 -8.190153 23.520365 -5.640375 -4.030707 -1.081575 2.624539 -3.033502 25.732147 6.465230 12.333405 43.556149 4.343969 6.498896 21.465872 -11.006229 5.250032 
0.509919 53.928444 35.842587 7.001282 -9.041264 -1.538534 33.312393 5.561004 6.959991 -26.099321 -4.383395 1.287233 -9.642255 -0.155551 -0.559839 -14.016169 3.410047 -1.524216 8.861669 -1.932660 3.351237 -69.701294 -11.153864 44.075657 -90.187469 5.947759 35.254723 8.524705 12.647240 -9.436904 -6.806992 -0.756156 2.905732 60.861172 24.695595 47.115410 87.986061 -3.958661 33.589642 -8.534408 -12.637552 53.372902 -34.982780 13.894296 -6.163207 23.712927 -5.634121 -4.037376 -0.728207 2.775315 -3.053030 24.180964 6.796078 10.881578 48.349419 3.936628 7.034609 22.328737 -12.119352 5.760069 
0.483393 53.626984 37.454105 6.540602 -8.710940 -1.103265 33.683163 5.142725 6.362698 -26.362684 -4.234667 1.182594 -9.232302 -0.309369 -0.557482 -14.082965 3.866983 -1.616174 8.861669 -1.932660 3.351237 -69.186676 -12.469698 44.648834 -90.222839 5.972432 35.284286 8.524705 12.647240 -8.001356 -6.806992 -0.756156 2.905732 61.430531 23.434017 46.658726 87.400345 -3.238904 32.975952 -8.534408 -12.637552 53.900246 -33.517490 13.346771 -4.154864 24.370995 -5.601282 -4.128680 -0.136947 2.174641 -3.049321 22.608501 6.912938 9.394186 53.277824 3.449097 7.547158 22.938437 -12.770150 6.064126 
0.464670 53.296192 39.037228 6.034562 -7.936342 -0.728317 34.195229 4.243067 5.462033 -26.526186 -3.845262 1.050392 -9.164081 -0.553228 -0.479255 -13.893426 4.265409 -1.558308 8.861669 -1.932660 3.351237 -68.825211 -14.249578 45.286785 -90.221924 5.973104 35.284321 8.524705 12.647240 -6.419324 -6.806992 -0.756156 2.905732 61.816620 22.556280 46.227043 86.941925 -2.561344 32.320160 -8.534408 -12.637552 54.173687 -31.864468 12.353071 -2.004180 25.571911 -5.547229 -4.274162 0.508461 0.679248 -3.051343 20.753565 6.385328 7.502458 58.272846 2.918665 8.006719 22.919411 -12.988894 6.182049 
0.448754 52.961655 40.673401 5.523268 -7.296847 -0.331377 34.575630 3.520080 4.671905 -26.337732 -3.470789 0.904952 -9.261726 -0.751829 -0.356452 -13.728845 4.494313 -1.390242 8.861669 -1.932660 3.351237 -68.571480 -16.430115 46.047157 -90.222839 5.972432 35.284286 8.524705 12.647240 -5.022840 -6.806992 -0.756156 2.905732 62.123875 22.094870 45.706467 86.574440 -1.898979 31.532993 -8.534408 -12.637552 53.607285 -30.354895 11.433112 0.043024 27.350117 -5.469365 -4.513805 0.278680 -3.378914 -3.150002 18.862701 5.799866 5.425824 63.198532 2.350709 8.416713 22.500347 -12.970889 6.139387 
0.450002 52.629612 42.331730 4.925434 -6.672654 0.317486 35.011852 3.028435 3.697718 -26.208530 -3.113188 0.689231 -9.574060 -0.862337 -0.233176 -12.974091 4.606513 -1.170192 8.861669 -1.932660 3.351237 -68.448471 -18.507818 46.692390 -90.306442 6.035741 35.335598 8.524705 12.647240 -4.016981 -6.806992 -0.756156 2.905732 62.399132 21.488604 45.151585 86.368507 -1.464825 30.755711 -8.534408 -12.637552 52.806499 -28.844839 10.428862 1.450113 29.623260 -5.357128 -4.807576 -1.866355 -6.285749 -3.554337 17.112152 5.106118 3.189247 67.940170 1.764533 8.754079 21.305363 -12.872570 5.978744 
0.460924 52.240463 43.937946 4.476328 -6.043098 1.123770 35.463722 2.664571 2.564203 -26.529333 -2.748105 0.437319 -9.740447 -1.066302 -0.145285 -12.065465 4.828547 -1.045075 8.861669 -1.932660 3.351237 -68.369125 -20.256460 47.307186 -90.505051 6.177010 35.467648 8.524705 12.647240 -3.557997 -6.806992 -0.756156 2.905732 62.702019 20.469019 44.533016 86.254089 -1.277306 30.032732 -8.534408 -12.637552 52.044781 -27.626802 9.316501 1.980077 32.317291 -5.209714 -5.145899 -5.275962 -7.393514 -4.096457 15.199230 4.256234 0.808875 72.547806 1.195608 9.063097 19.924536 -12.821380 5.825295 
0.483081 51.840080 45.535732 3.990587 -5.459540 1.508683 36.046173 2.170261 1.827598 -27.006887 -2.458981 0.305547 -9.584950 -1.338831 -0.063438 -11.696945 5.136836 -0.966446 8.861669 -1.932660 3.351237 -68.228279 -22.139687 48.136391 -90.696159 6.309295 35.581299 8.524705 12.647240 -3.450575 -6.806992 -0.756156 2.905732 63.100025 19.383879 43.855419 86.142807 -1.310455 29.256409 -8.534408 -12.637552 51.195171 -26.532763 8.388836 2.063912 35.222385 -5.015152 -5.522827 -8.253988 -7.828056 -4.538756 13.219042 3.211681 -1.078825 77.053734 0.599007 9.292801 18.858276 -12.946873 5.792583 
0.532388 51.511158 47.148811 3.292896 -5.073136 1.302212 36.825752 1.691947 1.569804 -27.133287 -2.322729 0.293321 -9.360784 -1.565433 0.056439 -11.846853 5.513857 -0.819627 8.861669 -1.932660 3.351237 -68.132240 -24.421358 48.933235 -90.895615 6.447268 35.704506 8.524705 12.647240 -3.509168 -6.806992 -0.756156 2.905732 63.662289 18.610001 43.033653 85.973198 -1.571765 28.473354 -8.534408 -12.637552 50.150249 -25.282562 7.831947 2.185454 38.128418 -4.812522 -5.861779 -10.768800 -7.948016 -4.859293 11.282714 2.146964 -2.206639 81.391037 0.021886 9.471301 17.616211 -13.003058 5.655203 
0.528643 51.207520 48.549065 3.014262 -4.660728 2.531838 37.794300 1.815879 0.273774 -27.463936 -1.987158 -0.063966 -9.292922 -1.731173 0.130728 -12.525286 5.715615 -0.784309 8.861669 -1.932660 3.351237 -68.285004 -27.276726 49.622509 -91.107498 6.586874 35.829578 8.524705 12.647240 -3.938856 -6.806992 -0.756156 2.905732 64.307129 18.133253 41.988655 85.738556 -1.946383 27.807865 -8.534408 -12.637552 48.704933 -24.850609 6.717968 1.318274 40.661190 -4.617947 -6.163153 -13.093064 -7.260623 -4.909509 8.441970 1.131552 -4.751438 85.734314 -0.593835 9.624787 16.117617 -12.908702 5.479002 
0.531452 50.899818 49.958366 2.841949 -3.671311 3.444754 38.673939 1.253700 -1.223606 -27.539980 -1.481461 -0.397058 -9.313665 -1.912467 0.111656 -13.469752 5.779381 -0.927005 8.861669 -1.932660 3.351237 -68.670700 -30.767483 50.246330 -91.194504 6.645781 35.881714 8.524705 12.647240 -4.261122 -6.806992 -0.756156 2.905732 64.959717 17.890314 40.720997 85.414528 -2.408097 27.161995 -8.534408 -12.637552 47.337749 -23.902241 5.184112 0.852102 42.706024 -4.429496 -6.428443 -15.368168 -6.787982 -4.956677 5.326920 -0.800406 -7.008038 89.940964 -1.201312 9.712126 15.042365 -12.493151 5.248707 
